<?xml version="1.0" encoding="UTF-8"?>
<svg width="80px" height="78px" viewBox="0 0 80 78" version="1.1" xmlns="http://www.w3.org/2000/svg" xmlns:xlink="http://www.w3.org/1999/xlink">
    <title>crown</title>
    <defs>
        <radialGradient cx="29.6224934%" cy="39.6612241%" fx="29.6224934%" fy="39.6612241%" r="72.0246425%" gradientTransform="translate(0.296225,0.396612),scale(0.909101,1.000000),rotate(56.902800),translate(-0.296225,-0.396612)" id="radialGradient-1">
            <stop stop-color="#FFEB81" offset="0%"></stop>
            <stop stop-color="#FFC839" offset="68.2292%"></stop>
        </radialGradient>
        <radialGradient cx="29.941571%" cy="30.3379875%" fx="29.941571%" fy="30.3379875%" r="79.2163883%" gradientTransform="translate(0.299416,0.303380),scale(1.000000,0.850266),rotate(65.480400),translate(-0.299416,-0.303380)" id="radialGradient-2">
            <stop stop-color="#FF7D16" offset="0%"></stop>
            <stop stop-color="#FF3E12" offset="100%"></stop>
        </radialGradient>
    </defs>
    <g id="Page-1" stroke="none" stroke-width="1" fill="none" fill-rule="evenodd">
        <g id="crown" transform="translate(0.000013, -0.000025)" fill-rule="nonzero">
            <path d="M38.1319871,66.649025 L30.7299871,50.487025 C30.2769871,49.499025 30.4079871,48.269025 31.0529871,47.451025 L38.4549871,38.069725 C39.2959871,37.003425 40.7029871,37.003425 41.5449871,38.069725 L48.9459871,47.451025 C49.5919871,48.269025 49.7219871,49.499025 49.2699871,50.487025 L41.8679871,66.649025 C41.0549871,68.424025 38.9449871,68.424025 38.1319871,66.649025 Z" id="Path" fill="#FFF8DE"></path>
            <path d="M11.3599871,65.342025 C11.3599871,63.982025 12.4949871,62.880025 13.8959871,62.880025 L66.1039871,62.880025 C67.5049871,62.880025 68.6399871,63.982025 68.6399871,65.342025 L68.6399871,75.175025 C68.6399871,76.535025 67.5049871,77.637025 66.1039871,77.637025 L13.8959871,77.637025 C12.4949871,77.637025 11.3599871,76.535025 11.3599871,75.175025 L11.3599871,65.342025 Z" id="Path" fill="#FF7A00"></path>
            <path d="M24.2559871,25.633225 L35.6439871,2.716125 C37.4429871,-0.905375 42.5569871,-0.905375 44.3559871,2.716125 L55.7439871,25.633225 C57.1029871,28.369625 60.5759871,29.203225 63.0079871,27.376525 L72.2149871,20.459125 C75.6459871,17.881125 80.4639871,20.698725 79.9639871,24.991125 L74.9109871,68.375025 C74.6219871,70.857025 72.5419871,72.728025 70.0699871,72.728025 L9.92998714,72.728025 C7.45798714,72.728025 5.37798714,70.857025 5.08898714,68.375025 L0.0359871384,24.991125 C-0.464012862,20.698725 4.35398714,17.881125 7.78498714,20.459125 L16.9919871,27.376525 C19.4239871,29.203225 22.8969871,28.369625 24.2559871,25.633225 Z" id="Path" fill="url(#radialGradient-1)"></path>
            <path d="M36.1709871,35.368625 C38.1229871,32.865125 41.8769871,32.865125 43.8289871,35.368625 L51.3829871,45.059025 C52.7789871,46.848025 52.7789871,49.371025 51.3829871,51.160025 L43.8289871,60.850025 C41.8769871,63.354025 38.1229871,63.354025 36.1709871,60.850025 L28.6169871,51.160025 C27.2219871,49.371025 27.2219871,46.848025 28.6169871,45.059025 L36.1709871,35.368625 Z" id="Path" fill="url(#radialGradient-2)"></path>
        </g>
    </g>
</svg>